<mxfile host="app.diagrams.net" modified="2023-05-27T10:10:09.942Z" agent="Mozilla/5.0 (Macintosh; Intel Mac OS X 10_15_7) AppleWebKit/537.36 (KHTML, like Gecko) Chrome/113.0.0.0 Safari/537.36" etag="ilSCP2Vm-_4C3bk2cwDl" version="21.2.9" type="github" pages="2">
  <diagram name="Page-1" id="uQSYH2WX1kknHw3j0kpe">
    <mxGraphModel dx="1434" dy="796" grid="1" gridSize="10" guides="1" tooltips="1" connect="1" arrows="1" fold="1" page="1" pageScale="1" pageWidth="827" pageHeight="1169" math="0" shadow="0">
      <root>
        <mxCell id="0" />
        <mxCell id="1" parent="0" />
        <mxCell id="-IdixUgUm89AganmGWhD-12" value="" style="shape=ext;double=1;whiteSpace=wrap;html=1;aspect=fixed;sketch=1;hachureGap=4;jiggle=2;curveFitting=1;fontFamily=Architects Daughter;fontSource=https%3A%2F%2Ffonts.googleapis.com%2Fcss%3Ffamily%3DArchitects%2BDaughter;fontSize=20;fillColor=#f5f5f5;strokeColor=#666666;gradientColor=#b3b3b3;" vertex="1" parent="1">
          <mxGeometry x="400" y="330" width="180" height="180" as="geometry" />
        </mxCell>
        <mxCell id="-IdixUgUm89AganmGWhD-13" value="" style="shape=ext;double=1;whiteSpace=wrap;html=1;aspect=fixed;sketch=1;hachureGap=4;jiggle=2;curveFitting=1;fontFamily=Architects Daughter;fontSource=https://fonts.googleapis.com/css?family=Architects+Daughter;fontSize=20;fillColor=#f5f5f5;strokeColor=#666666;gradientColor=#b3b3b3;" vertex="1" parent="1">
          <mxGeometry x="420" y="360" width="180" height="180" as="geometry" />
        </mxCell>
        <mxCell id="-IdixUgUm89AganmGWhD-14" value="" style="shape=ext;double=1;whiteSpace=wrap;html=1;aspect=fixed;sketch=1;hachureGap=4;jiggle=2;curveFitting=1;fontFamily=Architects Daughter;fontSource=https://fonts.googleapis.com/css?family=Architects+Daughter;fontSize=20;fillColor=#f5f5f5;strokeColor=#666666;gradientColor=#b3b3b3;" vertex="1" parent="1">
          <mxGeometry x="440" y="390" width="180" height="180" as="geometry" />
        </mxCell>
        <mxCell id="-IdixUgUm89AganmGWhD-15" value="&lt;font style=&quot;font-size: 18px;&quot;&gt;category&lt;/font&gt;" style="text;html=1;align=center;verticalAlign=middle;resizable=0;points=[];autosize=1;strokeColor=none;fillColor=none;fontSize=20;fontFamily=Architects Daughter;" vertex="1" parent="1">
          <mxGeometry x="400" y="320" width="100" height="40" as="geometry" />
        </mxCell>
        <mxCell id="-IdixUgUm89AganmGWhD-18" value="" style="shape=ext;double=1;rounded=1;whiteSpace=wrap;html=1;sketch=1;hachureGap=4;jiggle=2;curveFitting=1;fontFamily=Architects Daughter;fontSource=https%3A%2F%2Ffonts.googleapis.com%2Fcss%3Ffamily%3DArchitects%2BDaughter;fontSize=20;fillColor=#fff2cc;strokeColor=#d6b656;gradientColor=#ffd966;" vertex="1" parent="1">
          <mxGeometry x="450" y="410" width="70" height="50" as="geometry" />
        </mxCell>
        <mxCell id="-IdixUgUm89AganmGWhD-23" value="" style="shape=ext;double=1;rounded=1;whiteSpace=wrap;html=1;sketch=1;hachureGap=4;jiggle=2;curveFitting=1;fontFamily=Architects Daughter;fontSource=https://fonts.googleapis.com/css?family=Architects+Daughter;fontSize=20;fillColor=#fff2cc;gradientColor=#ffd966;strokeColor=#d6b656;" vertex="1" parent="1">
          <mxGeometry x="540" y="410" width="70" height="50" as="geometry" />
        </mxCell>
        <mxCell id="-IdixUgUm89AganmGWhD-25" value="" style="shape=ext;double=1;rounded=1;whiteSpace=wrap;html=1;sketch=1;hachureGap=4;jiggle=2;curveFitting=1;fontFamily=Architects Daughter;fontSource=https://fonts.googleapis.com/css?family=Architects+Daughter;fontSize=20;fillColor=#fff2cc;gradientColor=#ffd966;strokeColor=#d6b656;" vertex="1" parent="1">
          <mxGeometry x="455" y="490" width="70" height="50" as="geometry" />
        </mxCell>
        <mxCell id="-IdixUgUm89AganmGWhD-8" value="&lt;font style=&quot;font-size: 34px;&quot;&gt;....&lt;/font&gt;" style="text;html=1;align=center;verticalAlign=middle;resizable=0;points=[];autosize=1;strokeColor=none;fillColor=none;fontSize=20;fontFamily=Architects Daughter;" vertex="1" parent="1">
          <mxGeometry x="560" y="480" width="40" height="50" as="geometry" />
        </mxCell>
        <mxCell id="-IdixUgUm89AganmGWhD-27" value="" style="shape=ext;double=1;rounded=0;whiteSpace=wrap;html=1;sketch=1;hachureGap=4;jiggle=2;curveFitting=1;fontFamily=Architects Daughter;fontSource=https://fonts.googleapis.com/css?family=Architects+Daughter;fontSize=20;fillColor=#f8cecc;strokeColor=#b85450;gradientColor=#ea6b66;" vertex="1" parent="1">
          <mxGeometry x="480" y="433" width="20" height="20" as="geometry" />
        </mxCell>
        <mxCell id="-IdixUgUm89AganmGWhD-28" value="" style="shape=ext;double=1;rounded=0;whiteSpace=wrap;html=1;sketch=1;hachureGap=4;jiggle=2;curveFitting=1;fontFamily=Architects Daughter;fontSource=https://fonts.googleapis.com/css?family=Architects+Daughter;fontSize=20;fillColor=#f8cecc;strokeColor=#b85450;gradientColor=#ea6b66;" vertex="1" parent="1">
          <mxGeometry x="455" y="420" width="20" height="20" as="geometry" />
        </mxCell>
        <mxCell id="-IdixUgUm89AganmGWhD-30" value="" style="shape=ext;double=1;rounded=0;whiteSpace=wrap;html=1;sketch=1;hachureGap=4;jiggle=2;curveFitting=1;fontFamily=Architects Daughter;fontSource=https://fonts.googleapis.com/css?family=Architects+Daughter;fontSize=20;fillColor=#f8cecc;gradientColor=#ea6b66;strokeColor=#b85450;" vertex="1" parent="1">
          <mxGeometry x="550" y="433" width="20" height="20" as="geometry" />
        </mxCell>
        <mxCell id="-IdixUgUm89AganmGWhD-31" value="" style="shape=ext;double=1;rounded=0;whiteSpace=wrap;html=1;sketch=1;hachureGap=4;jiggle=2;curveFitting=1;fontFamily=Architects Daughter;fontSource=https://fonts.googleapis.com/css?family=Architects+Daughter;fontSize=20;fillColor=#f8cecc;gradientColor=#ea6b66;strokeColor=#b85450;" vertex="1" parent="1">
          <mxGeometry x="460" y="505" width="20" height="20" as="geometry" />
        </mxCell>
        <mxCell id="-IdixUgUm89AganmGWhD-32" value="" style="shape=ext;double=1;rounded=0;whiteSpace=wrap;html=1;sketch=1;hachureGap=4;jiggle=2;curveFitting=1;fontFamily=Architects Daughter;fontSource=https://fonts.googleapis.com/css?family=Architects+Daughter;fontSize=20;fillColor=#f8cecc;gradientColor=#ea6b66;strokeColor=#b85450;" vertex="1" parent="1">
          <mxGeometry x="580" y="420" width="20" height="20" as="geometry" />
        </mxCell>
        <mxCell id="-IdixUgUm89AganmGWhD-36" value="" style="shape=ext;double=1;rounded=0;whiteSpace=wrap;html=1;sketch=1;hachureGap=4;jiggle=2;curveFitting=1;fontFamily=Architects Daughter;fontSource=https://fonts.googleapis.com/css?family=Architects+Daughter;fontSize=20;fillColor=#f8cecc;gradientColor=#ea6b66;strokeColor=#b85450;" vertex="1" parent="1">
          <mxGeometry x="490" y="505" width="20" height="20" as="geometry" />
        </mxCell>
        <mxCell id="-IdixUgUm89AganmGWhD-17" value="&lt;font style=&quot;font-size: 11px;&quot;&gt;news&lt;/font&gt;" style="text;html=1;align=center;verticalAlign=middle;resizable=0;points=[];autosize=1;strokeColor=none;fillColor=none;fontSize=20;fontFamily=Architects Daughter;" vertex="1" parent="1">
          <mxGeometry x="470" y="420" width="50" height="40" as="geometry" />
        </mxCell>
        <mxCell id="-IdixUgUm89AganmGWhD-16" value="&lt;font style=&quot;font-size: 16px;&quot;&gt;feeds&lt;/font&gt;" style="text;html=1;align=center;verticalAlign=middle;resizable=0;points=[];autosize=1;strokeColor=none;fillColor=none;fontSize=20;fontFamily=Architects Daughter;" vertex="1" parent="1">
          <mxGeometry x="460" y="393" width="70" height="40" as="geometry" />
        </mxCell>
      </root>
    </mxGraphModel>
  </diagram>
  <diagram id="XPBv6QBHrrVy_QeOL6K8" name="Page-2">
    <mxGraphModel dx="607" dy="796" grid="1" gridSize="10" guides="1" tooltips="1" connect="1" arrows="1" fold="1" page="1" pageScale="1" pageWidth="827" pageHeight="1169" math="0" shadow="0">
      <root>
        <mxCell id="0" />
        <mxCell id="1" parent="0" />
        <mxCell id="fI11QTNmgxgzGazVMkEG-1" value="api-serve" style="whiteSpace=wrap;html=1;sketch=1;hachureGap=4;jiggle=2;curveFitting=1;fontFamily=Architects Daughter;fontSource=https%3A%2F%2Ffonts.googleapis.com%2Fcss%3Ffamily%3DArchitects%2BDaughter;fontSize=20;fillColor=#d5e8d4;strokeColor=#82b366;" vertex="1" parent="1">
          <mxGeometry x="850" y="280" width="120" height="60" as="geometry" />
        </mxCell>
        <mxCell id="fI11QTNmgxgzGazVMkEG-3" value="console" style="whiteSpace=wrap;html=1;sketch=1;hachureGap=4;jiggle=2;curveFitting=1;fontFamily=Architects Daughter;fontSource=https://fonts.googleapis.com/css?family=Architects+Daughter;fontSize=20;fillColor=#e1d5e7;strokeColor=#9673a6;" vertex="1" parent="1">
          <mxGeometry x="1030" y="280" width="120" height="60" as="geometry" />
        </mxCell>
        <mxCell id="fI11QTNmgxgzGazVMkEG-4" value="client" style="whiteSpace=wrap;html=1;sketch=1;hachureGap=4;jiggle=2;curveFitting=1;fontFamily=Architects Daughter;fontSource=https://fonts.googleapis.com/css?family=Architects+Daughter;fontSize=20;fillColor=#dae8fc;strokeColor=#6c8ebf;" vertex="1" parent="1">
          <mxGeometry x="940" y="140" width="120" height="60" as="geometry" />
        </mxCell>
        <mxCell id="fI11QTNmgxgzGazVMkEG-5" value="" style="endArrow=classic;startArrow=classic;html=1;rounded=0;sketch=1;hachureGap=4;jiggle=2;curveFitting=1;fontFamily=Architects Daughter;fontSource=https%3A%2F%2Ffonts.googleapis.com%2Fcss%3Ffamily%3DArchitects%2BDaughter;fontSize=16;entryX=0.5;entryY=1;entryDx=0;entryDy=0;exitX=0.5;exitY=0;exitDx=0;exitDy=0;" edge="1" parent="1" source="fI11QTNmgxgzGazVMkEG-1" target="fI11QTNmgxgzGazVMkEG-4">
          <mxGeometry width="50" height="50" relative="1" as="geometry">
            <mxPoint x="1100" y="260" as="sourcePoint" />
            <mxPoint x="1150" y="210" as="targetPoint" />
          </mxGeometry>
        </mxCell>
        <mxCell id="fI11QTNmgxgzGazVMkEG-6" value="" style="endArrow=classic;html=1;rounded=0;sketch=1;hachureGap=4;jiggle=2;curveFitting=1;fontFamily=Architects Daughter;fontSource=https%3A%2F%2Ffonts.googleapis.com%2Fcss%3Ffamily%3DArchitects%2BDaughter;fontSize=16;entryX=0.583;entryY=0;entryDx=0;entryDy=0;entryPerimeter=0;" edge="1" parent="1" target="fI11QTNmgxgzGazVMkEG-3">
          <mxGeometry width="50" height="50" relative="1" as="geometry">
            <mxPoint x="1000" y="200" as="sourcePoint" />
            <mxPoint x="1000" y="250" as="targetPoint" />
          </mxGeometry>
        </mxCell>
        <mxCell id="fI11QTNmgxgzGazVMkEG-7" value="&lt;font style=&quot;font-size: 16px;&quot;&gt;token&lt;/font&gt;" style="text;html=1;align=center;verticalAlign=middle;resizable=0;points=[];autosize=1;strokeColor=none;fillColor=none;fontSize=20;fontFamily=Architects Daughter;" vertex="1" parent="1">
          <mxGeometry x="1030" y="210" width="70" height="40" as="geometry" />
        </mxCell>
        <mxCell id="fI11QTNmgxgzGazVMkEG-8" value="&lt;font style=&quot;font-size: 15px;&quot;&gt;news list&lt;/font&gt;" style="text;html=1;align=center;verticalAlign=middle;resizable=0;points=[];autosize=1;strokeColor=none;fillColor=none;fontSize=20;fontFamily=Architects Daughter;" vertex="1" parent="1">
          <mxGeometry x="890" y="210" width="80" height="40" as="geometry" />
        </mxCell>
        <mxCell id="fI11QTNmgxgzGazVMkEG-9" value="DB" style="whiteSpace=wrap;html=1;sketch=1;hachureGap=4;jiggle=2;curveFitting=1;fontFamily=Architects Daughter;fontSource=https://fonts.googleapis.com/css?family=Architects+Daughter;fontSize=20;fillColor=#fff2cc;strokeColor=#d6b656;" vertex="1" parent="1">
          <mxGeometry x="940" y="390" width="120" height="60" as="geometry" />
        </mxCell>
        <mxCell id="fI11QTNmgxgzGazVMkEG-10" value="" style="endArrow=classic;html=1;rounded=0;sketch=1;hachureGap=4;jiggle=2;curveFitting=1;fontFamily=Architects Daughter;fontSource=https%3A%2F%2Ffonts.googleapis.com%2Fcss%3Ffamily%3DArchitects%2BDaughter;fontSize=16;exitX=0.45;exitY=1.033;exitDx=0;exitDy=0;exitPerimeter=0;entryX=0.5;entryY=0;entryDx=0;entryDy=0;" edge="1" parent="1" source="fI11QTNmgxgzGazVMkEG-3" target="fI11QTNmgxgzGazVMkEG-9">
          <mxGeometry width="50" height="50" relative="1" as="geometry">
            <mxPoint x="1410" y="440" as="sourcePoint" />
            <mxPoint x="1460" y="390" as="targetPoint" />
          </mxGeometry>
        </mxCell>
        <mxCell id="fI11QTNmgxgzGazVMkEG-11" value="" style="endArrow=classic;html=1;rounded=0;sketch=1;hachureGap=4;jiggle=2;curveFitting=1;fontFamily=Architects Daughter;fontSource=https%3A%2F%2Ffonts.googleapis.com%2Fcss%3Ffamily%3DArchitects%2BDaughter;fontSize=16;exitX=0.5;exitY=1;exitDx=0;exitDy=0;entryX=0.5;entryY=0;entryDx=0;entryDy=0;" edge="1" parent="1" source="fI11QTNmgxgzGazVMkEG-1" target="fI11QTNmgxgzGazVMkEG-9">
          <mxGeometry width="50" height="50" relative="1" as="geometry">
            <mxPoint x="1180" y="470" as="sourcePoint" />
            <mxPoint x="1230" y="420" as="targetPoint" />
          </mxGeometry>
        </mxCell>
        <mxCell id="fI11QTNmgxgzGazVMkEG-13" value="&lt;font style=&quot;font-size: 16px;&quot;&gt;add feed&lt;/font&gt;" style="rounded=0;whiteSpace=wrap;html=1;sketch=1;hachureGap=4;jiggle=2;curveFitting=1;fontFamily=Architects Daughter;fontSource=https%3A%2F%2Ffonts.googleapis.com%2Fcss%3Ffamily%3DArchitects%2BDaughter;fontSize=20;fillColor=#fad7ac;strokeColor=#b46504;" vertex="1" parent="1">
          <mxGeometry x="1230" y="230" width="80" height="30" as="geometry" />
        </mxCell>
        <mxCell id="fI11QTNmgxgzGazVMkEG-14" value="&lt;span style=&quot;font-size: 16px;&quot;&gt;pull entry&lt;/span&gt;" style="rounded=0;whiteSpace=wrap;html=1;sketch=1;hachureGap=4;jiggle=2;curveFitting=1;fontFamily=Architects Daughter;fontSource=https://fonts.googleapis.com/css?family=Architects+Daughter;fontSize=20;fillColor=#b0e3e6;strokeColor=#0e8088;" vertex="1" parent="1">
          <mxGeometry x="1230" y="290" width="80" height="30" as="geometry" />
        </mxCell>
        <mxCell id="fI11QTNmgxgzGazVMkEG-15" value="&lt;span style=&quot;font-size: 11px;&quot;&gt;content parse&lt;/span&gt;" style="rounded=0;whiteSpace=wrap;html=1;sketch=1;hachureGap=4;jiggle=2;curveFitting=1;fontFamily=Architects Daughter;fontSource=https://fonts.googleapis.com/css?family=Architects+Daughter;fontSize=20;fillColor=#d0cee2;strokeColor=#56517e;" vertex="1" parent="1">
          <mxGeometry x="1215" y="350" width="110" height="30" as="geometry" />
        </mxCell>
        <mxCell id="fI11QTNmgxgzGazVMkEG-16" value="&lt;font style=&quot;font-size: 16px;&quot;&gt;storage&lt;/font&gt;" style="rounded=0;whiteSpace=wrap;html=1;sketch=1;hachureGap=4;jiggle=2;curveFitting=1;fontFamily=Architects Daughter;fontSource=https://fonts.googleapis.com/css?family=Architects+Daughter;fontSize=20;fillColor=#bac8d3;strokeColor=#23445d;" vertex="1" parent="1">
          <mxGeometry x="1230" y="405" width="80" height="30" as="geometry" />
        </mxCell>
        <mxCell id="fI11QTNmgxgzGazVMkEG-18" value="" style="endArrow=classic;html=1;rounded=0;sketch=1;hachureGap=4;jiggle=2;curveFitting=1;fontFamily=Architects Daughter;fontSource=https%3A%2F%2Ffonts.googleapis.com%2Fcss%3Ffamily%3DArchitects%2BDaughter;fontSize=16;exitX=1;exitY=0.5;exitDx=0;exitDy=0;entryX=0;entryY=0.5;entryDx=0;entryDy=0;" edge="1" parent="1" source="fI11QTNmgxgzGazVMkEG-3" target="fI11QTNmgxgzGazVMkEG-13">
          <mxGeometry width="50" height="50" relative="1" as="geometry">
            <mxPoint x="1230" y="560" as="sourcePoint" />
            <mxPoint x="1280" y="510" as="targetPoint" />
          </mxGeometry>
        </mxCell>
        <mxCell id="fI11QTNmgxgzGazVMkEG-19" value="" style="endArrow=classic;html=1;rounded=0;sketch=1;hachureGap=4;jiggle=2;curveFitting=1;fontFamily=Architects Daughter;fontSource=https%3A%2F%2Ffonts.googleapis.com%2Fcss%3Ffamily%3DArchitects%2BDaughter;fontSize=16;exitX=0.5;exitY=1;exitDx=0;exitDy=0;" edge="1" parent="1" source="fI11QTNmgxgzGazVMkEG-13" target="fI11QTNmgxgzGazVMkEG-14">
          <mxGeometry width="50" height="50" relative="1" as="geometry">
            <mxPoint x="1280" y="570" as="sourcePoint" />
            <mxPoint x="1330" y="520" as="targetPoint" />
          </mxGeometry>
        </mxCell>
        <mxCell id="fI11QTNmgxgzGazVMkEG-20" value="" style="endArrow=classic;html=1;rounded=0;sketch=1;hachureGap=4;jiggle=2;curveFitting=1;fontFamily=Architects Daughter;fontSource=https%3A%2F%2Ffonts.googleapis.com%2Fcss%3Ffamily%3DArchitects%2BDaughter;fontSize=16;exitX=0.5;exitY=1;exitDx=0;exitDy=0;" edge="1" parent="1" source="fI11QTNmgxgzGazVMkEG-15" target="fI11QTNmgxgzGazVMkEG-16">
          <mxGeometry width="50" height="50" relative="1" as="geometry">
            <mxPoint x="1270" y="570" as="sourcePoint" />
            <mxPoint x="1320" y="520" as="targetPoint" />
          </mxGeometry>
        </mxCell>
        <mxCell id="fI11QTNmgxgzGazVMkEG-21" value="" style="endArrow=classic;html=1;rounded=0;sketch=1;hachureGap=4;jiggle=2;curveFitting=1;fontFamily=Architects Daughter;fontSource=https%3A%2F%2Ffonts.googleapis.com%2Fcss%3Ffamily%3DArchitects%2BDaughter;fontSize=16;exitX=0.5;exitY=1;exitDx=0;exitDy=0;entryX=0.5;entryY=0;entryDx=0;entryDy=0;entryPerimeter=0;" edge="1" parent="1" source="fI11QTNmgxgzGazVMkEG-14" target="fI11QTNmgxgzGazVMkEG-15">
          <mxGeometry width="50" height="50" relative="1" as="geometry">
            <mxPoint x="1180" y="560" as="sourcePoint" />
            <mxPoint x="1230" y="510" as="targetPoint" />
          </mxGeometry>
        </mxCell>
        <mxCell id="fI11QTNmgxgzGazVMkEG-22" value="" style="endArrow=classic;html=1;rounded=0;sketch=1;hachureGap=4;jiggle=2;curveFitting=1;fontFamily=Architects Daughter;fontSource=https%3A%2F%2Ffonts.googleapis.com%2Fcss%3Ffamily%3DArchitects%2BDaughter;fontSize=16;entryX=1;entryY=0.5;entryDx=0;entryDy=0;exitX=0;exitY=0.5;exitDx=0;exitDy=0;" edge="1" parent="1" source="fI11QTNmgxgzGazVMkEG-16" target="fI11QTNmgxgzGazVMkEG-9">
          <mxGeometry width="50" height="50" relative="1" as="geometry">
            <mxPoint x="1260" y="540" as="sourcePoint" />
            <mxPoint x="1310" y="490" as="targetPoint" />
          </mxGeometry>
        </mxCell>
      </root>
    </mxGraphModel>
  </diagram>
</mxfile>
